<?xml version="1.0" standalone="no"?>
<!DOCTYPE svg PUBLIC "-//W3C//DTD SVG 20010904//EN"
 "http://www.w3.org/TR/2001/REC-SVG-20010904/DTD/svg10.dtd">
<svg version="1.0" xmlns="http://www.w3.org/2000/svg"
 width="260.000000pt" height="260.000000pt" viewBox="0 0 260.000000 260.000000"
 preserveAspectRatio="xMidYMid meet">
<metadata>
Created by potrace 1.11, written by Peter Selinger 2001-2013
</metadata>
<g transform="translate(0.000000,260.000000) scale(0.100000,-0.100000)"
fill="#000000" stroke="none">
<path d="M1207 2264 c-1 -1 -29 -5 -62 -9 -339 -36 -569 -187 -649 -427 -14
-40 -26 -95 -28 -123 l-3 -50 250 0 250 0 3 25 c13 106 79 191 172 224 68 25
212 30 294 11 124 -29 179 -97 180 -222 1 -58 -3 -78 -20 -100 -37 -50 -127
-89 -249 -107 -55 -8 -110 -15 -157 -21 -189 -21 -288 -38 -378 -64 -269 -77
-403 -247 -403 -511 0 -254 131 -439 362 -510 91 -29 149 -35 291 -33 208 2
380 57 518 165 42 33 62 43 62 33 0 -9 7 -47 16 -84 l15 -69 255 0 c231 1 255
2 248 17 -8 19 -30 96 -40 143 -4 18 -9 305 -11 638 -2 333 -8 630 -13 660
-19 105 -76 197 -166 268 -80 64 -264 124 -424 138 -61 6 -309 12 -313 8z
m408 -1121 c-2 -158 -8 -198 -41 -268 -65 -138 -208 -205 -406 -191 -172 12
-255 84 -257 221 -2 135 66 213 221 254 72 20 94 24 193 36 100 13 201 37 245
60 25 12 46 23 46 24 1 0 1 -61 -1 -136z"/>
</g>
</svg>
